<?xml version="1.0" encoding="UTF-8"?>
<svg version="1.1" xmlns="http://www.w3.org/2000/svg" width="512" height="512">
<path d="M0 0 C0.71402481 -0.0065712 1.42804962 -0.0131424 2.16371155 -0.01991272 C4.5312612 -0.03965447 6.89874739 -0.05131037 9.26635742 -0.0612793 C10.07469213 -0.06535482 10.88302685 -0.06943035 11.71585655 -0.07362938 C15.99448771 -0.09449415 20.27308677 -0.10879392 24.55175781 -0.11816406 C28.97042843 -0.12922774 33.38859534 -0.16362558 37.8070879 -0.20333576 C41.20518426 -0.22948624 44.60316035 -0.23785449 48.0013485 -0.24144554 C49.6300363 -0.24631582 51.25871858 -0.25794244 52.88730812 -0.27648354 C55.16876705 -0.30084217 57.44891949 -0.29991666 59.73046875 -0.29296875 C61.02793533 -0.29883499 62.32540192 -0.30470123 63.66218567 -0.31074524 C67.62255207 0.25786757 69.25350321 1.38293799 72.05932617 4.17700195 C73.36408235 6.78651431 73.17234189 8.7040148 73.15698242 11.62231445 C73.15375977 12.69868164 73.15053711 13.77504883 73.1472168 14.8840332 C73.13883789 16.01196289 73.13045898 17.13989258 73.12182617 18.30200195 C73.11731445 19.43766602 73.11280273 20.57333008 73.1081543 21.7434082 C73.09634232 24.55465833 73.07987124 27.36580426 73.05932617 30.17700195 C73.76710205 30.36093506 74.47487793 30.54486816 75.20410156 30.734375 C80.78343512 32.21462559 86.14661646 33.82436692 91.49682617 35.98950195 C92.43715698 36.36655273 92.43715698 36.36655273 93.39648438 36.7512207 C98.65033921 38.90091798 103.62630885 41.48036147 108.57104492 44.27075195 C110.94579951 45.39461128 110.94579951 45.39461128 113.02026367 44.70825195 C116.57468566 42.03903084 119.51907466 38.75327024 122.54956055 35.52075195 C126.49490774 31.43002348 129.4753814 29.22575563 135.37182617 29.11450195 C143.99437796 31.59896603 150.74125079 40.68612918 156.95776367 46.87231445 C158.33202011 48.23802078 158.33202011 48.23802078 159.73403931 49.63131714 C161.65703288 51.54389763 163.57776392 53.45872025 165.49731445 55.37475586 C167.95176977 57.82368681 170.41540275 60.26316799 172.88120079 62.70067024 C175.24661904 65.04298254 177.60144752 67.39584631 179.95776367 69.74731445 C180.8410434 70.61824738 181.72432312 71.4891803 182.6343689 72.38650513 C183.44926788 73.20440521 184.26416687 74.0223053 185.10375977 74.86499023 C186.18009171 75.93585373 186.18009171 75.93585373 187.27816772 77.02835083 C190.07391086 80.40091808 191.03950219 83.12633076 191.12182617 87.48950195 C189.64291862 92.62218112 186.77076328 95.44439695 183.05932617 99.17700195 C182.3194043 99.93110352 181.57948242 100.68520508 180.81713867 101.4621582 C178.91296646 103.38327145 176.99443634 105.28712812 175.05932617 107.17700195 C176.30885335 111.20260132 177.81357945 114.78234877 179.80932617 118.48950195 C182.40810488 123.58489608 184.47937359 128.7284244 186.37182617 134.11450195 C186.62609375 134.83613525 186.88036133 135.55776855 187.14233398 136.30126953 C188.38002853 139.90616013 189.35669131 143.43540071 190.05932617 147.17700195 C190.76017334 147.15605469 191.46102051 147.13510742 192.18310547 147.11352539 C195.37086537 147.03017147 198.55839569 146.97828056 201.74682617 146.92700195 C202.84961914 146.89348633 203.95241211 146.8599707 205.08862305 146.82543945 C213.29476088 146.72627162 213.29476088 146.72627162 217.26635742 149.06762695 C220.4301701 152.78975951 220.19951434 155.27454494 220.23632812 160.11767578 C220.24289932 160.83170059 220.24947052 161.5457254 220.25624084 162.28138733 C220.27598259 164.64893698 220.28763849 167.01642318 220.29760742 169.3840332 C220.30168295 170.19236792 220.30575848 171.00070263 220.3099575 171.83353233 C220.33082227 176.1121635 220.34512204 180.39076255 220.35449219 184.66943359 C220.36555587 189.08810421 220.3999537 193.50627112 220.43966389 197.92476368 C220.46581437 201.32286005 220.47418262 204.72083613 220.47777367 208.11902428 C220.48264394 209.74771208 220.49427057 211.37639436 220.51281166 213.0049839 C220.5371703 215.28644283 220.53624478 217.56659527 220.52929688 219.84814453 C220.53809624 221.79434441 220.53809624 221.79434441 220.54707336 223.77986145 C219.97846056 227.74022785 218.85339014 229.37117899 216.05932617 232.17700195 C213.44981382 233.48175813 211.53231332 233.29001767 208.61401367 233.2746582 C206.99946289 233.26982422 206.99946289 233.26982422 205.35229492 233.26489258 C204.22436523 233.25651367 203.09643555 233.24813477 201.93432617 233.23950195 C200.79866211 233.23499023 199.66299805 233.23047852 198.49291992 233.22583008 C195.68166979 233.2140181 192.87052387 233.19754702 190.05932617 233.17700195 C189.87539307 233.88477783 189.69145996 234.59255371 189.50195312 235.32177734 C188.02170254 240.9011109 186.4119612 246.26429224 184.24682617 251.61450195 C183.99545898 252.24138916 183.7440918 252.86827637 183.48510742 253.51416016 C181.33541014 258.76801499 178.75596665 263.74398463 175.96557617 268.6887207 C174.84173981 271.06292671 174.84173981 271.06292671 175.52807617 273.1340332 C177.75461434 276.10464407 180.37973008 278.6238019 183.05932617 281.17700195 C190.70522781 288.46224785 190.70522781 288.46224785 191.43432617 294.05200195 C190.7283002 299.93555175 186.51034441 303.97712679 182.46191406 308.04907227 C181.55740005 308.96311829 180.65288605 309.87716431 179.72096252 310.81890869 C178.74163201 311.79797783 177.76196378 312.77670926 176.78198242 313.75512695 C175.76812766 314.77287403 174.75449503 315.79084243 173.74107361 316.809021 C171.62373623 318.93379126 169.5026031 321.05468248 167.37890625 323.1730957 C164.6624759 325.88371627 161.95761867 328.60557033 159.25570011 331.33064651 C157.16852535 333.43256832 155.07444846 335.5275062 152.97833061 337.62050629 C151.97808032 338.62126867 150.98017994 339.6243857 149.98472786 340.62992096 C148.59239722 342.03462495 147.18947067 343.4288022 145.78613281 344.82250977 C144.99211563 345.61715637 144.19809845 346.41180298 143.38002014 347.23052979 C139.99713353 350.0679115 137.25907947 351.10642823 132.87182617 351.36450195 C126.98871512 349.53205753 123.36311256 345.45958742 119.05932617 341.17700195 C118.40834961 340.54020508 117.75737305 339.9034082 117.08666992 339.24731445 C115.72904159 337.90573374 114.39131458 336.54404269 113.05932617 335.17700195 C108.5782831 336.56205163 104.51241318 338.35347903 100.30932617 340.42700195 C91.83479515 344.51334227 83.02461837 347.37342261 74.05932617 350.17700195 C74.04998047 350.87784912 74.04063477 351.57869629 74.03100586 352.30078125 C73.97718073 355.4893922 73.89355681 358.67655528 73.80932617 361.86450195 C73.79514648 362.96729492 73.7809668 364.07008789 73.76635742 365.20629883 C73.51848729 373.41080017 73.51848729 373.41080017 71.13745117 377.3840332 C67.4509188 380.56470681 64.94005312 380.32199553 60.11865234 380.36987305 C59.40462753 380.37805054 58.69060272 380.38622803 57.9549408 380.39465332 C55.58740072 380.41950497 53.2199206 380.43602276 50.85229492 380.45043945 C50.04396021 380.45576313 49.2356255 380.46108681 48.40279579 380.46657181 C44.12417168 380.49330259 39.84557674 380.51267755 35.56689453 380.52709961 C31.14810848 380.54374631 26.73006845 380.58852364 22.31156445 380.63947105 C18.9134689 380.673132 15.51555067 380.6846757 12.11730385 380.69032669 C10.48859265 380.69704258 8.85989326 380.7122736 7.23134422 380.7362175 C4.94967293 380.76784946 2.67001671 380.76791007 0.38818359 380.76049805 C-1.55801628 380.77262833 -1.55801628 380.77262833 -3.54353333 380.78500366 C-7.80583798 380.02215958 -9.24890673 378.48795531 -11.94067383 375.17700195 C-13.1990594 372.66023082 -13.14886355 370.76406908 -13.25708008 367.95043945 C-13.31992187 366.40356445 -13.31992187 366.40356445 -13.3840332 364.82543945 C-13.42334961 363.74520508 -13.46266602 362.6649707 -13.50317383 361.55200195 C-13.56794922 359.92004883 -13.56794922 359.92004883 -13.6340332 358.25512695 C-13.74031913 355.56255026 -13.8423544 352.86987942 -13.94067383 350.17700195 C-15.01961914 349.84829102 -16.09856445 349.51958008 -17.21020508 349.1809082 C-26.82498484 346.15720184 -35.81392484 342.60072926 -44.74462891 337.89794922 C-45.49768311 337.51566162 -46.2507373 337.13337402 -47.02661133 336.73950195 C-47.68709473 336.39016602 -48.34757812 336.04083008 -49.02807617 335.6809082 C-50.98320777 334.97407643 -50.98320777 334.97407643 -53.0078125 335.9074707 C-56.6416412 338.2942219 -59.47084243 341.67584847 -62.4309082 344.83325195 C-66.37625539 348.92398042 -69.35672906 351.12824828 -75.25317383 351.23950195 C-83.87572561 348.75503788 -90.62259845 339.66787473 -96.83911133 333.48168945 C-97.75528229 332.57121857 -98.67145325 331.66074768 -99.61538696 330.72268677 C-101.53838054 328.81010628 -103.45911158 326.89528366 -105.37866211 324.97924805 C-107.83311742 322.5303171 -110.29675041 320.09083592 -112.76254845 317.65333366 C-115.12796669 315.31102137 -117.48279518 312.95815759 -119.83911133 310.60668945 C-121.16403091 309.30029007 -121.16403091 309.30029007 -122.51571655 307.96749878 C-123.33061554 307.14959869 -124.14551453 306.33169861 -124.98510742 305.48901367 C-125.70266205 304.77510468 -126.42021667 304.06119568 -127.15951538 303.32565308 C-129.95525852 299.95308583 -130.92084984 297.22767315 -131.00317383 292.86450195 C-129.52426627 287.73182279 -126.65211094 284.90960695 -122.94067383 281.17700195 C-122.20075195 280.42290039 -121.46083008 279.66879883 -120.69848633 278.8918457 C-118.79431412 276.97073246 -116.875784 275.06687578 -114.94067383 273.17700195 C-116.3257235 268.69595888 -118.1171509 264.63008896 -120.19067383 260.42700195 C-124.27701414 251.95247093 -127.13709448 243.14229415 -129.94067383 234.17700195 C-130.9386499 234.1629834 -130.9386499 234.1629834 -131.95678711 234.14868164 C-134.99381401 234.09474176 -138.02933961 234.01114133 -141.06567383 233.92700195 C-142.11239258 233.91282227 -143.15911133 233.89864258 -144.23754883 233.8840332 C-150.37874925 233.68969142 -154.2909991 233.3413571 -158.94067383 229.17700195 C-160.42125 226.21584961 -160.0925555 223.54109017 -160.11767578 220.23632812 C-160.12424698 219.52230331 -160.13081818 218.8082785 -160.1375885 218.07261658 C-160.15733025 215.70506692 -160.16898615 213.33758073 -160.17895508 210.9699707 C-160.18303061 210.16163599 -160.18710613 209.35330128 -160.19130516 208.52047157 C-160.21216993 204.24184041 -160.2264697 199.96324136 -160.23583984 195.68457031 C-160.24690352 191.2658997 -160.28130136 186.84773279 -160.32101154 182.42924023 C-160.34716203 179.03114386 -160.35553027 175.63316777 -160.35912132 172.23497963 C-160.3639916 170.60629183 -160.37561822 168.97760955 -160.39415932 167.34902 C-160.41851795 165.06756107 -160.41759244 162.78740863 -160.41064453 160.50585938 C-160.41651077 159.20839279 -160.42237701 157.91092621 -160.42842102 156.57414246 C-159.85980822 152.61377606 -158.73473779 150.98282492 -155.94067383 148.17700195 C-153.36856061 146.89094534 -151.37160417 146.96656254 -148.49536133 146.8605957 C-146.88081055 146.79775391 -146.88081055 146.79775391 -145.23364258 146.73364258 C-144.10571289 146.69432617 -142.9777832 146.65500977 -141.81567383 146.61450195 C-140.68000977 146.57131836 -139.5443457 146.52813477 -138.37426758 146.48364258 C-135.56319615 146.37734156 -132.75203438 146.2753079 -129.94067383 146.17700195 C-129.77051758 145.62463867 -129.60036133 145.07227539 -129.42504883 144.50317383 C-126.13523536 133.94252263 -122.77219921 123.78685236 -117.25512695 114.15356445 C-115.32261227 110.8058708 -115.32261227 110.8058708 -115.38598633 107.0793457 C-117.96167444 103.92768713 -120.89145583 101.18517718 -123.86450195 98.41918945 C-128.05874492 94.38909365 -130.84635236 90.72368159 -131.06567383 84.80200195 C-128.39818194 76.20675033 -119.43262338 69.5089417 -113.21020508 63.27856445 C-112.29736252 62.36239349 -111.38451996 61.44622253 -110.4440155 60.50228882 C-108.52709736 58.57943348 -106.60817573 56.65860397 -104.68798828 54.73901367 C-102.23174102 52.28286879 -99.78249264 49.81986713 -97.33487415 47.35512733 C-94.98530967 44.99177888 -92.62857834 42.63562403 -90.27270508 40.27856445 C-89.39661087 39.39528473 -88.52051666 38.512005 -87.61787415 37.60195923 C-86.79989853 36.78706024 -85.98192291 35.97216125 -85.13916016 35.13256836 C-84.42303055 34.41501373 -83.70690094 33.69745911 -82.96907043 32.9581604 C-80.07500624 30.41684926 -77.88295302 29.29990793 -74.06567383 28.80200195 C-67.46253117 29.59437907 -62.99632892 34.85412831 -58.56567383 39.42700195 C-58.02040039 39.98129883 -57.47512695 40.5355957 -56.91333008 41.10668945 C-55.58444406 42.45888927 -54.26188835 43.81730545 -52.94067383 45.17700195 C-48.97201901 43.94475199 -45.45984137 42.47475741 -41.81567383 40.48950195 C-36.14139399 37.58788158 -30.3313224 35.39712933 -24.31567383 33.30200195 C-23.42605957 32.99174072 -22.53644531 32.68147949 -21.61987305 32.36181641 C-15.22399995 30.17700195 -15.22399995 30.17700195 -12.94067383 30.17700195 C-12.96162109 29.51168457 -12.98256836 28.84636719 -13.00415039 28.16088867 C-13.08767992 25.12474894 -13.13944986 22.08885152 -13.19067383 19.05200195 C-13.22418945 18.0052832 -13.25770508 16.95856445 -13.29223633 15.88012695 C-13.37096231 9.66077421 -13.20094866 5.86330426 -8.94067383 1.17700195 C-5.97952148 -0.30357422 -3.30476205 0.02512028 0 0 Z M8.05932617 21.17700195 C7.72932617 27.77700195 7.39932617 34.37700195 7.05932617 41.17700195 C2.8304699 48.22509575 -2.30329673 49.08807274 -9.80444336 51.16723633 C-22.55743067 54.70821744 -34.38820231 59.53958038 -45.56567383 66.67700195 C-49.51429992 69.13735132 -52.20901605 70.01200038 -56.94067383 69.17700195 C-61.25528694 66.99805018 -64.42805277 63.93004778 -67.75317383 60.48950195 C-68.25526367 59.97838867 -68.75735352 59.46727539 -69.2746582 58.94067383 C-70.50130892 57.69065833 -71.72164874 56.43445516 -72.94067383 55.17700195 C-75.7503685 56.4572307 -77.79459763 57.78414324 -79.96508789 59.97436523 C-80.52536682 60.53479523 -81.08564575 61.09522522 -81.66290283 61.67263794 C-82.25472351 62.27478119 -82.84654419 62.87692444 -83.45629883 63.49731445 C-84.0721283 64.11597382 -84.68795776 64.73463318 -85.32244873 65.37203979 C-87.28327719 67.34404009 -89.23702683 69.32288932 -91.19067383 71.30200195 C-92.52094181 72.64230359 -93.85166582 73.98215278 -95.18286133 75.3215332 C-98.44077533 78.60146784 -101.69235916 81.88756137 -104.94067383 85.17700195 C-103.11805839 89.14870305 -100.50084965 91.81127018 -97.37817383 94.80200195 C-91.0620225 100.90146194 -91.0620225 100.90146194 -90.59692383 105.7902832 C-90.66992146 110.86019719 -92.80387948 114.16279638 -95.44067383 118.36450195 C-103.19465277 131.49512582 -108.47034161 145.72671079 -111.95629883 160.55981445 C-113.10654716 163.6180144 -114.13972897 164.56593217 -116.94067383 166.17700195 C-123.92637351 168.50556851 -131.58727753 167.7899811 -138.94067383 168.17700195 C-138.94067383 182.69700195 -138.94067383 197.21700195 -138.94067383 212.17700195 C-129.04067383 212.67200195 -129.04067383 212.67200195 -118.94067383 213.17700195 C-111.73926431 217.49784766 -110.95727652 222.81043642 -108.69067383 230.55200195 C-104.74701557 243.4969272 -99.79164532 255.54086588 -92.44458008 266.9309082 C-90.48067676 271.16987874 -90.44160469 273.53471734 -90.94067383 278.17700195 C-92.22583008 280.4621582 -92.22583008 280.4621582 -94.00317383 282.23950195 C-94.63481445 282.89047852 -95.26645508 283.54145508 -95.91723633 284.2121582 C-96.5849707 284.86055664 -97.25270508 285.50895508 -97.94067383 286.17700195 C-98.94227539 287.19600586 -98.94227539 287.19600586 -99.96411133 288.2355957 C-101.60615499 289.90109713 -103.26414792 291.54633845 -104.94067383 293.17700195 C-103.66044508 295.98669662 -102.33353254 298.03092575 -100.14331055 300.20141602 C-99.58288055 300.76169495 -99.02245056 301.32197388 -98.44503784 301.89923096 C-97.84289459 302.49105164 -97.24075134 303.08287231 -96.62036133 303.69262695 C-95.69237228 304.61637115 -95.69237228 304.61637115 -94.74563599 305.55877686 C-92.77363569 307.51960531 -90.79478646 309.47335496 -88.81567383 311.42700195 C-87.47537219 312.75726994 -86.135523 314.08799395 -84.79614258 315.41918945 C-81.51620794 318.67710346 -78.23011441 321.92868729 -74.94067383 325.17700195 C-70.96897273 323.35438652 -68.3064056 320.73717777 -65.31567383 317.61450195 C-59.20275445 311.28441307 -59.20275445 311.28441307 -54.26879883 310.86450195 C-49.67215548 310.93070024 -46.48410208 312.73727593 -42.69067383 315.17700195 C-30.11050365 322.72540384 -16.41950492 327.88294537 -2.23193359 331.54321289 C3.94440711 333.18902021 3.94440711 333.18902021 6.05932617 336.17700195 C8.49288781 343.47768685 7.67502637 351.49100586 8.05932617 359.17700195 C22.57932617 359.17700195 37.09932617 359.17700195 52.05932617 359.17700195 C52.38932617 352.90700195 52.71932617 346.63700195 53.05932617 340.17700195 C56.41782078 333.46001273 56.41782078 333.46001273 61.12329102 331.76831055 C64.35772157 330.78044286 67.60549788 329.86366044 70.87182617 328.98950195 C82.82229057 325.61733467 94.13611122 320.73149024 104.68432617 314.17700195 C109.62877451 311.2212298 112.35291803 309.84550672 118.05932617 311.17700195 C121.08463231 313.18411995 123.53644239 315.57888307 126.05932617 318.17700195 C126.73866211 318.84473633 127.41799805 319.5124707 128.11791992 320.20043945 C129.78342135 321.84248312 131.42866267 323.50047604 133.05932617 325.17700195 C135.86902084 323.89677321 137.91324997 322.56986066 140.08374023 320.37963867 C140.64401917 319.81920868 141.2042981 319.25877869 141.78155518 318.68136597 C142.37337585 318.07922272 142.96519653 317.47707947 143.57495117 316.85668945 C144.19078064 316.23803009 144.80661011 315.61937073 145.44110107 314.98196411 C147.40192953 313.00996382 149.35567918 311.03111459 151.30932617 309.05200195 C152.63959416 307.71170032 153.97031817 306.37185113 155.30151367 305.0324707 C158.55942767 301.75253607 161.81101151 298.46644254 165.05932617 295.17700195 C163.24135319 291.21065962 160.62742922 288.58476682 157.49682617 285.61450195 C153.59259059 281.90870274 151.32852069 279.59377052 150.70776367 274.02075195 C151.16632114 269.00719032 153.09758033 265.91010949 155.68432617 261.67700195 C161.22749541 252.13129836 165.58270036 242.60409181 168.54370117 231.9387207 C168.79732422 231.03621582 169.05094727 230.13371094 169.31225586 229.20385742 C169.79929774 227.4342719 170.26462518 225.65852236 170.70483398 223.87670898 C171.03499512 222.65830322 171.03499512 222.65830322 171.37182617 221.4152832 C171.55358398 220.69381104 171.7353418 219.97233887 171.92260742 219.22900391 C173.05932617 217.17700195 173.05932617 217.17700195 179.05932617 213.17700195 C188.95932617 212.68200195 188.95932617 212.68200195 199.05932617 212.17700195 C199.05932617 197.65700195 199.05932617 183.13700195 199.05932617 168.17700195 C192.78932617 167.84700195 186.51932617 167.51700195 180.05932617 167.17700195 C174.05932617 164.17700195 174.05932617 164.17700195 172.40698242 160.6965332 C171.93681099 159.19642989 171.48944014 157.68907771 171.05932617 156.17700195 C170.49837086 154.38834625 169.9343813 152.60064029 169.36791992 150.8137207 C169.06772949 149.85304687 168.76753906 148.89237305 168.45825195 147.90258789 C164.76249405 136.22406798 160.17774652 125.61158482 154.07739258 114.99438477 C151.52486439 110.43778528 150.25234341 107.55688702 151.05932617 102.17700195 C153.05917787 99.17130769 155.49788476 96.70877416 158.05932617 94.17700195 C159.06092773 93.15606445 159.06092773 93.15606445 160.08276367 92.11450195 C161.72575009 90.45139734 163.38353931 88.80694662 165.05932617 87.17700195 C163.77909743 84.36730728 162.45218488 82.32307815 160.26196289 80.15258789 C159.4213179 79.31216949 159.4213179 79.31216949 158.56369019 78.45477295 C157.96154694 77.86295227 157.35940369 77.27113159 156.73901367 76.66137695 C156.12035431 76.04554749 155.50169495 75.42971802 154.86428833 74.79522705 C152.89228804 72.83439859 150.9134388 70.88064895 148.93432617 68.92700195 C147.59402454 67.59673397 146.25417535 66.26600996 144.91479492 64.93481445 C141.63486029 61.67690045 138.34876675 58.42531662 135.05932617 55.17700195 C131.08762507 56.99961739 128.42505794 59.61682613 125.43432617 62.73950195 C119.4122699 68.9754997 119.4122699 68.9754997 115.12182617 69.61450195 C110.49731977 69.52938834 107.21463082 67.26932284 103.28979492 65.01293945 C91.2700768 58.18190255 79.03754215 53.64737192 65.70556641 49.96655273 C64.09016968 49.50611572 64.09016968 49.50611572 62.44213867 49.03637695 C61.47679199 48.77308594 60.51144531 48.50979492 59.5168457 48.23852539 C56.6391275 46.9954975 55.64141853 45.84973624 54.05932617 43.17700195 C51.73075961 36.19130227 52.44634703 28.53039825 52.05932617 21.17700195 C37.53932617 21.17700195 23.01932617 21.17700195 8.05932617 21.17700195 Z " fill="#000000" transform="translate(225.940673828125,65.822998046875)"/>
<path d="M0 0 C9.41256045 5.90873084 14.82324377 12.99316881 18.30859375 23.44921875 C18.45769813 26.02700416 18.54653211 28.55817597 18.55859375 31.13671875 C18.5625415 31.85770752 18.56648926 32.57869629 18.57055664 33.3215332 C18.51069971 38.77838764 17.44834419 42.51848947 15.30859375 47.44921875 C15.52665606 52.35562082 18.33389402 55.48871866 21.24609375 59.19921875 C36.85764188 79.90182096 47.60742968 103.7673232 55.30859375 128.44921875 C55.54271973 129.1983252 55.7768457 129.94743164 56.01806641 130.71923828 C58.68098301 139.40266199 60.76773555 148.15888635 62.49609375 157.07421875 C62.65102295 157.87206787 62.80595215 158.66991699 62.96557617 159.49194336 C63.45340552 162.13928729 63.89051179 164.78993237 64.30859375 167.44921875 C64.4888208 168.58834717 64.66904785 169.72747559 64.85473633 170.90112305 C66.47316842 182.27632678 66.66571819 193.53468036 66.62109375 205.01171875 C66.61927094 205.98410492 66.61744812 206.95649109 66.61557007 207.95834351 C66.57021154 222.32842681 66.06840168 236.31034175 63.30859375 250.44921875 C63.14762207 251.34624512 62.98665039 252.24327148 62.82080078 253.16748047 C59.07812701 273.85105607 53.70342902 303.20792555 39.30859375 319.44921875 C35.65571182 320.66684606 33.15105239 320.83997726 29.30859375 320.44921875 C25.56047565 318.15870214 23.74345733 316.54782149 22.12109375 312.44921875 C21.82862606 307.15105409 24.46018834 302.32810048 26.44921875 297.54443359 C33.01153079 281.54506941 37.85849908 265.39189775 41.30859375 248.44921875 C41.48793457 247.60117676 41.66727539 246.75313477 41.85205078 245.87939453 C47.09990202 219.98408885 46.79366135 189.26474504 41.30859375 163.44921875 C41.01475024 161.92594973 40.72179235 160.40250963 40.4296875 158.87890625 C33.94629767 126.44117702 20.35118659 96.1604765 1.46264648 69.10888672 C0.39187537 67.56898783 -0.65101589 66.0098043 -1.69140625 64.44921875 C-2.64660156 64.61679688 -3.60179687 64.784375 -4.5859375 64.95703125 C-16.59241751 66.84838104 -26.35034049 66.6984103 -36.69140625 59.44921875 C-39.50390625 56.94921875 -39.50390625 56.94921875 -41.69140625 54.44921875 C-42.37203125 53.72734375 -43.05265625 53.00546875 -43.75390625 52.26171875 C-49.40222451 44.06254708 -51.35214094 35.29072011 -50.06640625 25.51171875 C-48.22962277 15.90485779 -43.46689992 8.4203825 -35.69140625 2.44921875 C-25.31511159 -3.92191895 -11.1771378 -5.37181159 0 0 Z M-27.69140625 24.44921875 C-29.56995711 28.20632047 -29.35520203 32.36900613 -28.69140625 36.44921875 C-26.69129458 39.88325663 -24.26789131 42.66097622 -20.69140625 44.44921875 C-16.3892818 45.07054934 -12.35745138 45.41958554 -8.51171875 43.1796875 C-5.43216284 40.55375912 -2.98217936 38.46254648 -2.3828125 34.3125 C-2.13211764 29.35178041 -2.26221266 26.26170978 -5.56640625 22.38671875 C-8.71017076 19.15942426 -10.87509827 18.23932314 -15.37890625 18.01171875 C-21.08243572 18.0365167 -24.0747365 20.18000002 -27.69140625 24.44921875 Z " fill="#000000" transform="translate(445.69140625,50.55078125)"/>
<path d="M0 0 C3.31816832 2.64739881 3.89879088 5.10598611 4.375 9.3125 C3.87018972 14.27646777 2.62144986 15.61998013 -1 19 C-4.54769117 20.07067352 -6.94935004 19.96791574 -10.5 19.0625 C-29.50199765 15.29819653 -47.38189307 18.17846906 -64 28 C-75.76134641 35.93738534 -84.05380155 46.73255004 -89 60 C-89.47759766 61.16789062 -89.47759766 61.16789062 -89.96484375 62.359375 C-95.59300622 78.64732906 -92.67283414 97.11942428 -85.42578125 112.296875 C-77.07010754 127.64482578 -63.81568755 138.88102887 -47 144 C-30.37073874 148.89937375 -13.11833077 146.85316797 2.33203125 139.390625 C17.76758469 130.92534035 28.63105905 117.81836925 34 101 C35.85315076 94.43830066 36.3090735 88.23587559 36.25 81.4375 C36.25773438 80.54353516 36.26546875 79.64957031 36.2734375 78.72851562 C36.25704883 73.12768738 35.51147335 68.3864475 34 63 C33.45076825 59.56585621 33.30814288 56.42386666 34.875 53.19921875 C37.09496751 50.1394609 38.88763729 49.03210363 42.5 48 C46.11473218 48 47.94470689 48.10076374 51 50 C60.64889424 60.50026726 58.75125252 78.82287654 58.20703125 91.96582031 C56.73764973 113.50057685 44.58439931 133.56963218 29 148 C8.84264112 164.80301416 -14.41455698 169.5248226 -40 168 C-61.78728125 165.45359598 -81.27448318 153.45790266 -95.51171875 137.1171875 C-111.43301301 116.8438926 -116.6626562 92.78194619 -113.69970703 67.43066406 C-110.08527153 45.46778844 -97.63835568 26.0322675 -80.375 12.25 C-58.33305205 -3.44136088 -25.73573487 -11.29953704 0 0 Z " fill="#000000" transform="translate(284,174)"/>
<path d="M0 0 C2.79987689 1.35477914 3.85920578 2.54591882 6 5 C8.35927788 12.18507355 5.07667452 18.12987986 2.4375 24.875 C-2.47773568 38.04587276 -6.25046463 51.20048959 -9 65 C-9.17644043 65.83934082 -9.35288086 66.67868164 -9.53466797 67.54345703 C-14.78859407 93.44859314 -14.48749092 124.17306836 -9 150 C-8.70615649 151.52326902 -8.4131986 153.04670912 -8.12109375 154.5703125 C-1.63770392 187.00804173 11.95740716 217.28874225 30.84594727 244.34033203 C31.91671838 245.88023092 32.95960964 247.43941445 34 249 C34.95519531 248.83242188 35.91039063 248.66484375 36.89453125 248.4921875 C48.90101126 246.60083771 58.65893424 246.75080845 69 254 C71.8125 256.5 71.8125 256.5 74 259 C75.0209375 260.0828125 75.0209375 260.0828125 76.0625 261.1875 C81.71081826 269.38667167 83.66073469 278.15849864 82.375 287.9375 C80.53821652 297.54436096 75.77549367 305.02883625 68 311 C58.43593363 316.87242227 47.94117726 317.63116073 37.109375 315.40625 C28.31395205 312.41912522 21.11940787 305.84461202 16.9375 297.625 C14.61334252 292.41425548 13.7766175 288.00280174 13.75 282.3125 C13.74605225 281.59151123 13.74210449 280.87052246 13.73803711 280.12768555 C13.79789404 274.67083111 14.86024956 270.93072928 17 266 C16.78193769 261.09359793 13.97469973 257.96050009 11.0625 254.25 C-4.54904813 233.54739779 -15.29883593 209.68189555 -23 185 C-23.23412598 184.25089355 -23.46825195 183.50178711 -23.70947266 182.72998047 C-26.37238926 174.04655676 -28.4591418 165.2903324 -30.1875 156.375 C-30.3424292 155.57715088 -30.4973584 154.77930176 -30.65698242 153.95727539 C-31.14481177 151.30993146 -31.58191804 148.65928638 -32 146 C-32.18022705 144.86087158 -32.3604541 143.72174316 -32.54614258 142.5480957 C-34.16457467 131.17289197 -34.35712444 119.91453839 -34.3125 108.4375 C-34.31067719 107.46511383 -34.30885437 106.49272766 -34.30697632 105.49087524 C-34.26161779 91.12079194 -33.75980793 77.138877 -31 63 C-30.83902832 62.10297363 -30.67805664 61.20594727 -30.51220703 60.28173828 C-28.37409166 48.46562133 -25.26155445 37.08888516 -21.5 25.6875 C-21.13245605 24.5727832 -20.76491211 23.45806641 -20.38623047 22.30957031 C-11.94460765 -2.40726258 -11.94460765 -2.40726258 0 0 Z M36 275 C34.12144914 278.75710172 34.33620422 282.91978738 35 287 C37.00011167 290.43403788 39.42351494 293.21175747 43 295 C47.30212445 295.62133059 51.33395487 295.97036679 55.1796875 293.73046875 C58.25924341 291.10454037 60.70922689 289.01332773 61.30859375 284.86328125 C61.55928861 279.90256166 61.42919359 276.81249103 58.125 272.9375 C54.98123549 269.71020551 52.81630798 268.79010439 48.3125 268.5625 C42.60897053 268.58729795 39.61666975 270.73078127 36 275 Z " fill="#000000" transform="translate(34,148)"/>
<path d="M0 0 C7.1390234 7.66731113 9.48988916 16.3987632 9.26733398 26.64111328 C8.72123209 36.62457608 5.08550058 43.05318151 -1.734375 50.234375 C-8.52740101 56.18354685 -16.03869455 58.6458741 -24.9375 58.6875 C-25.65848877 58.69144775 -26.37947754 58.69539551 -27.12231445 58.69946289 C-32.57916889 58.63960596 -36.31927072 57.57725044 -41.25 55.4375 C-46.15640207 55.65556231 -49.28949991 58.46280027 -53 61.375 C-73.70260221 76.98654813 -97.56810445 87.73633593 -122.25 95.4375 C-122.99910645 95.67162598 -123.74821289 95.90575195 -124.52001953 96.14697266 C-133.20344324 98.80988926 -141.9596676 100.8966418 -150.875 102.625 C-151.67284912 102.7799292 -152.47069824 102.9348584 -153.29272461 103.09448242 C-155.94007174 103.58231236 -158.59069758 104.01949821 -161.25 104.4375 C-162.95434204 104.70675293 -162.95434204 104.70675293 -164.69311523 104.98144531 C-176.14855723 106.60909787 -187.50387945 106.83536847 -199.0625 106.8125 C-200.05145264 106.81228851 -201.04040527 106.81207703 -202.05932617 106.81185913 C-218.11440326 106.7776794 -233.50295253 105.79471115 -249.25 102.4375 C-250.20181152 102.23962891 -251.15362305 102.04175781 -252.13427734 101.83789062 C-258.22320212 100.54677533 -264.24365133 99.06791881 -270.25 97.4375 C-271.03068848 97.2297998 -271.81137695 97.02209961 -272.61572266 96.80810547 C-286.60939558 93.02499245 -286.60939558 93.02499245 -291.25 87.4375 C-292.42584751 83.39552419 -292.49644076 81.1913188 -291.1875 77.1875 C-288.81950934 73.826481 -287.0718271 72.90359282 -283.25 71.4375 C-280.05859375 71.66015625 -280.05859375 71.66015625 -276.6875 72.5 C-275.45128906 72.80164063 -274.21507812 73.10328125 -272.94140625 73.4140625 C-269.6399097 74.32939805 -266.38507598 75.32336259 -263.125 76.375 C-257.61657266 78.12615656 -252.09624584 79.4176764 -246.4375 80.5625 C-245.66841309 80.72097412 -244.89932617 80.87944824 -244.10693359 81.04272461 C-229.22027394 83.95612985 -214.69083131 84.81022102 -199.5625 84.75 C-198.17260864 84.74776428 -198.17260864 84.74776428 -196.75463867 84.7454834 C-183.36303017 84.70673922 -170.38789909 84.22893117 -157.25 81.4375 C-155.72673098 81.14365649 -154.20329088 80.8506986 -152.6796875 80.55859375 C-120.24195827 74.07520392 -89.96125775 60.48009284 -62.90966797 41.59155273 C-61.36976908 40.52078162 -59.81058555 39.47789036 -58.25 38.4375 C-58.50136719 37.00470703 -58.50136719 37.00470703 -58.7578125 35.54296875 C-60.64916229 23.53648874 -60.49919155 13.77856576 -53.25 3.4375 C-50.75 0.625 -50.75 0.625 -48.25 -1.5625 C-47.528125 -2.243125 -46.80625 -2.92375 -46.0625 -3.625 C-31.10530998 -13.92884202 -13.24690882 -11.86548071 0 0 Z M-37.25 17.4375 C-39.12855086 21.19460172 -38.91379578 25.35728738 -38.25 29.4375 C-36.24988833 32.87153788 -33.82648506 35.64925747 -30.25 37.4375 C-25.94787555 38.05883059 -21.91604513 38.40786679 -18.0703125 36.16796875 C-14.99075659 33.54204037 -12.54077311 31.45082773 -11.94140625 27.30078125 C-11.69071139 22.34006166 -11.82080641 19.24999103 -15.125 15.375 C-18.26876451 12.14770551 -20.43369202 11.22760439 -24.9375 11 C-30.64102947 11.02479795 -33.63333025 13.16828127 -37.25 17.4375 Z " fill="#000000" transform="translate(455.25,405.5625)"/>
<path d="M0 0 C0.97205383 0.00182281 1.94410767 0.00364563 2.94561768 0.00552368 C17.28997032 0.05081915 31.33676626 0.44368341 45.4375 3.3125 C46.39253418 3.50537598 47.34756836 3.69825195 48.33154297 3.89697266 C78.16075299 10.07003592 78.16075299 10.07003592 82.4375 15.3125 C83.72278567 19.62103623 83.94366402 23.06041004 82.25 27.25 C80.26426689 29.50962733 79.31553616 30.45686763 76.4375 31.3125 C70.35324547 31.62332605 65.44954636 30.71579994 59.625 29.0625 C27.41957955 20.69437518 -8.813583 18.35428339 -41.5625 25.3125 C-43.08576902 25.60634351 -44.60920912 25.8993014 -46.1328125 26.19140625 C-78.57054173 32.67479608 -108.85124225 46.26990716 -135.90283203 65.15844727 C-137.44273092 66.22921838 -139.00191445 67.27210964 -140.5625 68.3125 C-140.39492187 69.26769531 -140.22734375 70.22289063 -140.0546875 71.20703125 C-138.16333771 83.21351126 -138.31330845 92.97143424 -145.5625 103.3125 C-148.0625 106.125 -148.0625 106.125 -150.5625 108.3125 C-151.284375 108.993125 -152.00625 109.67375 -152.75 110.375 C-160.94917167 116.02331826 -169.72099864 117.97323469 -179.5 116.6875 C-189.10686096 114.85071652 -196.59133625 110.08799367 -202.5625 102.3125 C-208.43492227 92.74843363 -209.19366073 82.25367726 -206.96875 71.421875 C-203.98162522 62.62645205 -197.40711202 55.43190787 -189.1875 51.25 C-183.97675548 48.92584252 -179.56530174 48.0891175 -173.875 48.0625 C-173.15401123 48.05855225 -172.43302246 48.05460449 -171.69018555 48.05053711 C-166.23333111 48.11039404 -162.49322928 49.17274956 -157.5625 51.3125 C-152.65609793 51.09443769 -149.52300009 48.28719973 -145.8125 45.375 C-125.10989779 29.76345187 -101.24439555 19.01366407 -76.5625 11.3125 C-75.81339355 11.07837402 -75.06428711 10.84424805 -74.29248047 10.60302734 C-65.60905676 7.94011074 -56.8528324 5.8533582 -47.9375 4.125 C-47.13965088 3.9700708 -46.34180176 3.8151416 -45.51977539 3.65551758 C-42.87243146 3.16768823 -40.22178638 2.73058196 -37.5625 2.3125 C-36.42337158 2.13227295 -35.28424316 1.9520459 -34.1105957 1.76635742 C-22.73539234 0.14792538 -11.47703887 -0.04462872 0 0 Z M-185.5625 75.3125 C-187.44105086 79.06960172 -187.22629578 83.23228738 -186.5625 87.3125 C-184.56238833 90.74653788 -182.13898506 93.52425747 -178.5625 95.3125 C-174.26037555 95.93383059 -170.22854513 96.28286679 -166.3828125 94.04296875 C-163.30325659 91.41704037 -160.85327311 89.32582773 -160.25390625 85.17578125 C-160.00321139 80.21506166 -160.13330641 77.12499103 -163.4375 73.25 C-166.58126451 70.02270551 -168.74619202 69.10260439 -173.25 68.875 C-178.95352947 68.89979795 -181.94583025 71.04328127 -185.5625 75.3125 Z " fill="#000000" transform="translate(255.5625,-0.31250000000000006)"/>
<path d="M0 0 C3.56202683 2.16819024 5.45294033 4.16385204 7 8 C7.21457815 11.12513818 6.85810959 13.98831213 6 17 C3.6580577 19.60215811 1.84646564 20.66586883 -1.375 21.9375 C-5.19002695 22.02833397 -7.66719163 20.78984153 -11 19 C-14.06243067 16.03965035 -14.74223427 13.21017364 -15 9 C-14.22047316 5.72598726 -13.15616648 4.16994588 -10.875 1.6875 C-7.12620464 -0.51287989 -4.25029527 -0.86038366 0 0 Z " fill="#000000" transform="translate(314,192)"/>
<path d="M0 0 C3.14373796 2.67217727 3.87287599 4.52540369 4.9375 8.5 C5.00870535 12.48749959 4.47505731 13.92751507 2 17 C-0.48618036 19.57497251 -1.7765604 19.97103561 -5.375 20.4375 C-9.61294831 19.92602348 -11.70904291 18.66410812 -15 16 C-16.73631636 12.52736727 -16.60190402 8.78806987 -16 5 C-11.19115788 -1.07432689 -7.28495761 -1.86660835 0 0 Z " fill="#000000" transform="translate(367,24)"/>
<path d="M0 0 C3.17926316 1.31317391 4.55064891 2.28512327 6.375 5.1875 C7.22504993 9.01272468 7.20015477 12.25049687 6 16 C3.31744394 19.07704959 1.43807145 19.88265943 -2.5 20.9375 C-7.32982694 21.02374691 -9.32397373 19.50264424 -12.8125 16.375 C-14.69181078 12.61637843 -14.88239188 9.0983821 -14 5 C-9.76130583 -0.19240036 -6.53679869 -0.83006967 0 0 Z " fill="#000000" transform="translate(146,464)"/>
</svg>
